<svg xmlns="http://www.w3.org/2000/svg" xmlns:xlink="http://www.w3.org/1999/xlink" version="1.1" id="Layer_1" x="0px" y="0px" width="100px" height="100px" viewBox="5.0 -10.0 100.0 135.0" enable-background="new 0 0 100 100" xml:space="preserve">
<path d="M67.973,82.944h-35c-3.227,0-5.852-2.625-5.852-5.851V46.76c0-3.226,2.625-5.851,5.852-5.851h35  c3.227,0,5.852,2.625,5.852,5.851v30.334C73.824,80.319,71.199,82.944,67.973,82.944z M32.973,42.61  c-2.288,0-4.148,1.861-4.148,4.149v30.334c0,2.288,1.86,4.149,4.148,4.149h35c2.288,0,4.148-1.861,4.148-4.149V46.76  c0-2.288-1.86-4.149-4.148-4.149H32.973z"/>
<path d="M53.988,73.026h-7.027c-1.385,0-2.512-1.125-2.512-2.511c0-0.075,0.01-0.149,0.029-0.222l1.967-7.293  c-1.72-1.271-2.729-3.254-2.729-5.418c0-3.725,3.031-6.756,6.757-6.756s6.755,3.031,6.755,6.756c0,2.164-1.009,4.146-2.729,5.417  l1.969,7.294c0.02,0.072,0.029,0.146,0.029,0.222C56.498,71.901,55.371,73.026,53.988,73.026z M46.156,70.608  c0.047,0.403,0.389,0.717,0.805,0.717h7.027c0.414,0,0.758-0.312,0.805-0.717l-2.094-7.752c-0.099-0.367,0.058-0.755,0.383-0.949  c1.531-0.926,2.445-2.543,2.445-4.323c0-2.787-2.267-5.056-5.054-5.056c-2.788,0-5.056,2.269-5.056,5.056  c0,1.78,0.914,3.397,2.445,4.323c0.325,0.196,0.48,0.584,0.383,0.949L46.156,70.608z"/>
<path d="M65.556,38.438c-0.47,0-0.851-0.381-0.851-0.851v-6.82c0-7.346-5.977-13.323-13.321-13.323h-1.822  c-7.346,0-13.321,5.977-13.321,13.323v6.82c0,0.47-0.381,0.851-0.851,0.851s-0.851-0.381-0.851-0.851v-6.82  c0-8.284,6.738-15.024,15.021-15.024h1.822c8.283,0,15.021,6.74,15.021,15.024v6.82C66.406,38.057,66.025,38.438,65.556,38.438z"/>
</svg>