<svg xmlns="http://www.w3.org/2000/svg" xmlns:xlink="http://www.w3.org/1999/xlink" version="1.1" id="Layer_1" x="0px" y="0px" width="100px" height="100px" viewBox="5.0 -10.0 100.0 135.0" enable-background="new 0 0 100 100" xml:space="preserve">
<g>
	<path d="M49.117,18.513c-5.158,0.139-10.344,1.507-15.104,4.214C18.71,31.434,13.468,50.718,22.281,65.788   c8.841,15.042,28.422,20.177,43.725,11.47c6.518-3.712,11.222-9.35,13.771-15.768c0.142-0.391-0.085-0.865-0.481-1.033   c-0.396-0.14-0.879,0.084-1.021,0.475c-2.437,6.084-6.857,11.442-13.092,14.986c-14.537,8.261-33.098,3.377-41.485-10.939   c-8.417-14.316-3.429-32.624,11.108-40.912c4.534-2.568,9.465-3.852,14.368-3.963c10.768-0.279,21.338,5.107,27.118,14.958   c0.766,1.312,1.417,2.623,1.983,4.019c0.142,0.363,0.624,0.586,1.021,0.446c0.396-0.139,0.623-0.642,0.481-1.032   c-0.595-1.423-1.275-2.847-2.097-4.214C71.616,23.927,60.479,18.233,49.117,18.513L49.117,18.513z M63.257,31.601   c-0.623,0.056-0.935,0.949-0.481,1.368l16.492,16.242H32.936c-0.028,0-0.057,0-0.085,0c-0.425,0.028-0.765,0.418-0.765,0.837   c0.028,0.391,0.425,0.753,0.85,0.726h46.332L62.775,67.016c-0.34,0.279-0.368,0.865-0.057,1.172   c0.312,0.335,0.906,0.279,1.189-0.056L81.761,50.55c0.313-0.279,0.313-0.809,0-1.088L63.908,31.853   c-0.17-0.14-0.368-0.251-0.595-0.251C63.285,31.601,63.285,31.601,63.257,31.601L63.257,31.601z"/>
</g>
</svg>