<svg xmlns="http://www.w3.org/2000/svg" xmlns:xlink="http://www.w3.org/1999/xlink" version="1.1" id="Layer_1" x="0px" y="0px" width="100px" height="100px" viewBox="5.0 -10.0 100.0 135.0" enable-background="new 0 0 100 100" xml:space="preserve">
<g>
	<path fill="#000000" d="M50,18.492c-17.386,0-31.507,14.121-31.507,31.507S32.614,81.508,50,81.508   c17.386,0,31.507-14.122,31.507-31.508S67.386,18.492,50,18.492L50,18.492z M50,20.083c16.549,0,29.916,13.368,29.916,29.917   c0,16.549-13.367,29.945-29.916,29.945S20.083,66.549,20.083,50C20.083,33.451,33.451,20.083,50,20.083L50,20.083z M50,28.65   c-0.865,0-1.591,0.698-1.591,1.563c0,0.865,0.726,1.563,1.591,1.563s1.563-0.698,1.563-1.563C51.563,29.348,50.865,28.65,50,28.65   L50,28.65z M49.86,36.213c-0.028,0-0.056,0.028-0.084,0.028h-0.083h-7.535c-0.056,0-0.112,0-0.167,0   c-0.419,0.028-0.753,0.447-0.698,0.865c0.028,0.418,0.446,0.753,0.865,0.726h7.004v25.954h-7.004c-0.056,0-0.112,0-0.167,0   c-0.419,0.028-0.753,0.446-0.698,0.865c0.028,0.419,0.446,0.753,0.865,0.697H57.73c0.418,0.028,0.781-0.362,0.781-0.781   s-0.363-0.781-0.781-0.781h-7.005V37.022C50.753,36.576,50.307,36.158,49.86,36.213L49.86,36.213z"/>
</g>
</svg>